<?xml version="1.0" standalone="no"?>
<!DOCTYPE svg PUBLIC "-//W3C//DTD SVG 20010904//EN"
 "http://www.w3.org/TR/2001/REC-SVG-20010904/DTD/svg10.dtd">
<svg version="1.0" xmlns="http://www.w3.org/2000/svg"
 width="512.000000pt" height="512.000000pt" viewBox="0 0 512.000000 512.000000"
 preserveAspectRatio="xMidYMid meet">
<metadata>
Created by potrace 1.14, written by Peter Selinger 2001-2017
</metadata>
<g transform="translate(0.000000,512.000000) scale(0.100000,-0.100000)"
fill="#000000" stroke="none">
<path d="M2390 4759 c-30 -4 -84 -13 -120 -19 -36 -6 -69 -11 -75 -12 -5 0
-20 -4 -33 -9 -13 -5 -35 -11 -50 -14 -117 -20 -376 -129 -522 -218 -75 -46
-225 -157 -289 -213 -358 -317 -597 -775 -657 -1259 -10 -79 -10 -352 0 -440
12 -112 52 -291 91 -410 30 -93 146 -345 187 -410 52 -80 101 -150 149 -212
l56 -72 52 63 c28 35 51 67 51 70 0 4 -24 41 -54 84 -130 186 -232 440 -266
657 -6 39 -13 84 -16 100 -7 37 -7 308 0 350 3 17 8 50 11 75 20 140 85 333
161 480 240 462 705 793 1205 857 78 10 341 11 424 1 229 -26 475 -114 670
-240 253 -165 435 -367 569 -635 69 -138 87 -190 146 -423 31 -123 34 -444 6
-571 -46 -205 -64 -264 -127 -400 -176 -383 -516 -697 -910 -839 -182 -66
-346 -94 -554 -94 -206 0 -394 33 -581 102 l-50 19 -52 -63 c-29 -35 -52 -66
-52 -68 0 -11 293 -115 369 -131 101 -21 175 -35 216 -40 28 -3 66 -9 85 -12
52 -8 305 -8 380 1 471 51 879 245 1210 576 307 306 501 699 566 1150 10 66
12 395 4 455 -5 33 -12 83 -15 110 -19 159 -112 435 -202 605 -176 330 -395
561 -748 788 -11 7 -74 39 -140 72 -172 85 -364 145 -595 186 -58 10 -441 13
-500 3z"/>
<path d="M3150 3460 c-41 -15 -84 -31 -95 -35 -307 -128 -529 -274 -730 -481
-80 -83 -80 -83 -140 -89 -80 -7 -200 -26 -260 -40 -105 -25 -134 -37 -140
-58 -11 -37 -142 -448 -216 -676 -38 -117 -69 -218 -69 -224 0 -5 52 54 116
131 125 152 136 159 163 94 13 -30 10 -58 -8 -105 -16 -41 -15 -42 35 -91 59
-58 164 -112 191 -98 23 13 129 10 142 -3 8 -9 -40 -77 -132 -185 -45 -53 -88
-110 -82 -110 12 0 852 415 870 430 7 6 11 23 10 38 -2 15 -6 70 -10 122 -3
52 -8 106 -10 120 -20 139 -21 129 31 205 128 187 167 250 218 351 81 162 153
358 172 471 2 15 9 51 14 78 15 80 23 185 14 184 -5 -1 -43 -14 -84 -29z m-11
-137 c-13 -14 -91 -58 -174 -98 -254 -125 -418 -241 -622 -442 -66 -65 -148
-152 -183 -193 -34 -41 -71 -85 -81 -97 -10 -12 -54 -70 -99 -129 -44 -58 -80
-103 -80 -99 0 18 197 302 277 400 273 333 554 544 888 668 50 18 92 29 94 24
2 -4 -7 -20 -20 -34z"/>
<path d="M1650 1803 c-65 -89 -305 -414 -317 -428 -15 -18 -598 -798 -716
-957 -65 -87 -115 -158 -112 -158 2 0 328 323 724 718 l720 719 -42 23 c-52
29 -110 72 -162 121 l-40 38 -55 -76z"/>
</g>
</svg>
